<?xml version="1.0" ?><svg data-name="Layer 1" id="Layer_1" viewBox="0 0 32 32" xmlns="http://www.w3.org/2000/svg" xmlns:xlink="http://www.w3.org/1999/xlink"><defs><style>.cls-1{fill:url(#linear-gradient);}.cls-2{fill:url(#linear-gradient-2);}.cls-3{fill:#1282ff;}</style><linearGradient gradientUnits="userSpaceOnUse" id="linear-gradient" x1="15" x2="15" y1="6" y2="28"><stop offset="0.24" stop-color="#cdeaff"/><stop offset="0.34" stop-color="#c2e4ff"/><stop offset="0.5" stop-color="#a5d5ff"/><stop offset="0.72" stop-color="#76bcff"/><stop offset="0.98" stop-color="#369aff"/><stop offset="1" stop-color="#3197ff"/></linearGradient><linearGradient gradientUnits="userSpaceOnUse" id="linear-gradient-2" x1="15" x2="15" y1="12" y2="6"><stop offset="0.36" stop-color="#e2edff"/><stop offset="1" stop-color="#85c7ff"/></linearGradient></defs><title/><rect class="cls-1" height="22" width="26" x="2" y="6"/><rect class="cls-2" height="6" width="26" x="2" y="6"/><path class="cls-3" d="M25,5V2H23V5H19V2H17V5H13V2H11V5H7V2H5V5H1V29H29V5ZM5,7V9H7V7h4V9h2V7h4V9h2V7h4V9h2V7h2v4H3V7ZM3,27V13H27V27Z"/><rect class="cls-3" height="2" width="2" x="11" y="17"/><rect class="cls-3" height="2" width="2" x="15" y="17"/><rect class="cls-3" height="2" width="2" x="19" y="17"/><rect class="cls-3" height="2" width="2" x="7" y="21"/><rect class="cls-3" height="2" width="2" x="11" y="21"/><rect class="cls-3" height="2" width="2" x="15" y="21"/></svg>